HIERARCHY
ROOT Hips
{
	OFFSET 228.634003 92.561920 -263.051910
	CHANNELS 6 Xposition Yposition Zposition Zrotation Yrotation Xrotation 
	JOINT LeftUpLeg
	{
		OFFSET 0.103458 1.857820 10.548502
		CHANNELS 3 Zrotation Yrotation Xrotation
		JOINT LeftLeg
		{
			OFFSET 43.500000 -0.000023 -0.000011
			CHANNELS 3 Zrotation Yrotation Xrotation
			JOINT LeftFoot
			{
				OFFSET 42.372192 0.000038 0.000002
				CHANNELS 3 Zrotation Yrotation Xrotation
				JOINT LeftToe
				{
					OFFSET 17.299992 -0.000004 0.000006
					CHANNELS 3 Zrotation Yrotation Xrotation
					End Site
					{
						OFFSET 0.000000 0.000000 0.000000
					}
				}
			}
		}
	}
	JOINT RightUpLeg
	{
		OFFSET 0.103461 1.857814 -10.548508
		CHANNELS 3 Zrotation Yrotation Xrotation
		JOINT RightLeg
		{
			OFFSET 43.500042 -0.000015 0.000008
			CHANNELS 3 Zrotation Yrotation Xrotation
			JOINT RightFoot
			{
				OFFSET 42.372253 0.000008 0.000006
				CHANNELS 3 Zrotation Yrotation Xrotation
				JOINT RightToe
				{
					OFFSET 17.299973 -0.000014 0.000011
					CHANNELS 3 Zrotation Yrotation Xrotation
					End Site
					{
						OFFSET 0.000000 0.000000 0.000000
					}
				}
			}
		}
	}
	JOINT Spine
	{
		OFFSET 6.901966 -2.603737 -0.000007
		CHANNELS 3 Zrotation Yrotation Xrotation
		JOINT Spine1
		{
			OFFSET 12.588102 0.000017 0.000001
			CHANNELS 3 Zrotation Yrotation Xrotation
			JOINT Spine2
			{
				OFFSET 12.343197 -0.000013 0.000000
				CHANNELS 3 Zrotation Yrotation Xrotation
				JOINT Neck
				{
					OFFSET 25.832905 -0.000008 0.000000
					CHANNELS 3 Zrotation Yrotation Xrotation
					JOINT Head
					{
						OFFSET 11.766610 0.000009 -0.000002
						CHANNELS 3 Zrotation Yrotation Xrotation
						End Site
						{
							OFFSET 0.000000 0.000000 0.000000
						}
					}
				}
				JOINT LeftShoulder
				{
					OFFSET 19.745903 -1.480377 6.000115
					CHANNELS 3 Zrotation Yrotation Xrotation
					JOINT LeftArm
					{
						OFFSET 11.284125 -0.000014 -0.000024
						CHANNELS 3 Zrotation Yrotation Xrotation
						JOINT LeftForeArm
						{
							OFFSET 33.000046 -0.000012 0.000029
							CHANNELS 3 Zrotation Yrotation Xrotation
							JOINT LeftHand
							{
								OFFSET 25.199989 0.000034 0.000012
								CHANNELS 3 Zrotation Yrotation Xrotation
								End Site
								{
									OFFSET 0.000000 0.000000 0.000000
								}
							}
						}
					}
				}
				JOINT RightShoulder
				{
					OFFSET 19.746098 -1.480362 -6.000071
					CHANNELS 3 Zrotation Yrotation Xrotation
					JOINT RightArm
					{
						OFFSET 11.284137 -0.000006 -0.000008
						CHANNELS 3 Zrotation Yrotation Xrotation
						JOINT RightForeArm
						{
							OFFSET 33.000095 0.000017 0.000000
							CHANNELS 3 Zrotation Yrotation Xrotation
							JOINT RightHand
							{
								OFFSET 25.199778 0.000144 0.000423
								CHANNELS 3 Zrotation Yrotation Xrotation
								End Site
								{
									OFFSET 0.000000 0.000000 0.000000
								}
							}
						}
					}
				}
			}
		}
	}
}
MOTION
Frames: 14
Frame Time: 0.033333
98.400711 7.344707 260.804901 -174.933097 23.270285 -179.724899 176.697595 -15.790405 169.886776 -22.431951 -2.748163 -12.006857 80.448830 3.399894 -21.903918 21.454560 0.003093 -0.000008 147.107412 0.430296 170.104468 -74.588316 1.615730 2.710742 75.887862 -0.615475 4.628868 21.454563 -0.003111 -0.000019 6.551742 0.200017 -0.901965 3.087337 0.423536 -1.798382 2.769398 0.412808 -1.800902 -34.181470 1.404846 2.199595 21.854934 1.310696 2.652796 -127.509892 -68.229690 -55.538088 -4.941954 22.520230 -4.219132 -35.398821 -24.956388 1.989719 11.590799 -30.050469 23.968191 -98.477196 84.370260 83.692576 -3.824415 -22.715275 -1.927812 -42.814532 25.409460 -2.249589 26.206061 23.695977 25.641421 
98.386559 7.562198 260.622192 -174.312684 23.255920 -178.557210 176.231462 -16.345790 169.706213 -24.324336 -3.434865 -10.792266 81.175794 2.504854 -22.584314 21.454551 0.003092 -0.000001 144.956941 -0.898102 170.191375 -81.938644 1.003432 -0.002506 73.582318 1.411423 4.516596 21.454563 -0.003110 -0.000018 6.738545 0.244378 -1.234474 3.458652 0.524948 -2.461225 3.140857 0.510217 -2.464344 -35.732835 1.800795 2.397567 22.847432 1.075453 3.043136 -130.948414 -68.632336 -51.985598 -4.583823 24.756415 -3.357466 -37.832841 -25.465054 2.085404 10.175988 -29.169614 25.490549 -100.262321 84.478662 81.889604 -6.219268 -23.536924 0.517733 -55.069988 22.368204 -2.452211 18.465910 25.967353 10.641329 
98.445877 7.732459 260.403198 -173.601074 22.422159 -177.359809 175.571625 -16.284696 169.410808 -26.897474 -4.114992 -10.480991 81.559063 2.258735 -23.012965 21.454557 0.003094 -0.000005 144.093864 -1.197494 170.179026 -87.026159 -0.004023 -2.460673 74.404331 3.205648 4.608029 21.454551 -0.003108 -0.000014 6.921513 0.098562 -1.499289 3.826991 0.245983 -2.994541 3.509357 0.228046 -2.995967 -36.372202 2.254608 2.332719 23.146102 0.924903 3.212616 -133.903482 -68.624167 -48.951102 -5.798168 27.078673 -3.035379 -40.364263 -26.002115 2.190501 8.114776 -26.968954 27.926593 -104.161566 84.707200 77.953202 -11.549243 -24.004813 1.401942 -62.839065 20.169620 -2.596438 12.765192 25.582941 1.004828 
98.356987 7.813201 260.062408 -172.604126 21.908600 -175.487504 174.899315 -16.692202 169.311510 -29.609123 -4.534941 -10.933097 81.786543 2.561189 -23.317685 21.454558 0.003098 -0.000008 145.344622 -0.920198 169.720079 -87.239151 0.019280 -3.052496 78.152875 4.301475 7.756753 21.454570 -0.003111 -0.000021 7.174891 0.055365 -1.775835 4.334234 0.176489 -3.548368 4.016792 0.155210 -3.549362 -36.421922 2.634088 2.143951 22.848221 0.598693 3.224366 -136.570397 -67.833792 -46.249875 -8.259264 29.374280 -3.894249 -43.730969 -26.408667 2.317207 5.898694 -24.257473 32.362864 -116.800046 85.341499 65.216565 -18.421410 -23.300209 1.590821 -67.209970 18.122874 -2.629934 9.099654 24.169968 -3.747202 
98.168861 7.893374 259.576385 -171.663568 21.131273 -173.623900 174.346521 -16.695496 169.235121 -31.999604 -4.618551 -12.360298 81.318470 3.620267 -22.779719 21.454550 0.003093 0.000005 147.865317 -0.065310 169.559815 -85.231936 -0.047811 -2.992484 74.236698 4.673171 8.116738 21.454563 -0.003108 -0.000018 7.411373 -0.062910 -1.965776 4.810699 -0.044747 -3.932436 4.493410 -0.068339 -3.932092 -35.977714 3.370656 1.663954 21.990690 0.067101 3.135739 -137.406495 -67.356716 -45.412784 -10.351282 32.854211 -6.506279 -48.575226 -26.488425 2.478621 3.063242 -18.858525 38.669966 -138.882936 86.408061 42.966825 -25.850000 -22.496831 -0.374047 -69.059551 17.411614 -2.656546 7.688770 24.170661 -5.345566 
97.968842 7.974162 259.132111 -170.635679 20.257281 -171.421397 173.807400 -16.923995 169.008154 -34.525722 -4.855939 -13.484189 80.877465 4.501525 -22.106585 21.454545 0.003089 0.000005 150.784964 1.191406 168.906945 -82.519921 0.578396 -3.175865 69.593883 6.307443 11.328680 21.454557 -0.003108 -0.000017 7.713321 -0.220589 -2.070711 5.420098 -0.344582 -4.149419 5.102895 -0.369474 -4.147265 -36.180236 3.918608 1.075656 21.415382 0.025336 2.873846 -136.994539 -67.462366 -45.831963 -12.048520 37.129953 -9.727667 -54.509677 -26.342069 2.678477 0.342837 -12.797974 45.802630 -172.121887 86.741592 9.552187 -34.103893 -22.285362 -1.254448 -69.380440 16.864116 -2.631495 6.928811 24.692524 -6.727049 
97.819603 8.109504 258.768402 -169.828132 19.417062 -169.124800 172.912809 -17.522502 168.125270 -37.467761 -5.047470 -13.806970 80.737658 4.937129 -21.118904 21.454545 0.003089 0.000007 152.946309 2.235399 169.061826 -81.348673 0.729058 -3.281224 68.930283 7.100318 13.120641 21.454558 -0.003110 -0.000019 7.972752 -0.329152 -2.109005 5.942927 -0.550115 -4.232078 5.625751 -0.575500 -4.228684 -36.940590 3.256391 0.821534 21.366912 0.966670 2.334207 -136.758911 -67.637649 -46.065695 -12.476419 41.565608 -14.018771 -61.736243 -24.857063 2.851788 -1.419719 -5.940392 54.521879 149.956107 86.460277 -28.560369 -43.312572 -22.210290 -2.176511 -68.107129 17.149468 -2.598733 5.566054 24.889797 -9.609047 
97.738823 8.369222 258.481689 -169.102602 18.455730 -166.612001 171.838858 -18.377199 167.413811 -40.743878 -5.457357 -13.787486 80.692135 5.158435 -20.072767 21.454558 0.003086 0.000000 154.632628 3.505004 169.808693 -81.348120 0.842305 -2.944176 70.833098 6.784945 13.689910 21.454560 -0.003108 -0.000020 8.238678 -0.449305 -2.125840 6.479243 -0.779361 -4.273479 6.162069 -0.804993 -4.268703 -38.225335 2.329531 0.735489 21.655900 1.995046 1.821574 -136.116231 -68.200484 -46.698417 -11.828763 46.574025 -19.004581 -69.167762 -21.994001 2.952222 -0.972431 -0.430277 61.020739 115.953417 84.157691 -62.858006 -52.295716 -22.157745 -1.438315 -65.573204 17.891353 -2.547091 4.082448 22.960854 -13.072620 
97.592522 8.755466 258.057800 -168.309576 17.424350 -163.584397 170.726261 -19.083603 167.568938 -43.955160 -5.845591 -13.918243 80.516790 5.536522 -18.744452 21.454551 0.003090 0.000001 156.995860 5.037095 171.578395 -80.806950 0.522162 -2.662730 72.000794 6.478368 13.845665 21.454555 -0.003108 -0.000017 8.554067 -0.533669 -2.125894 7.113060 -0.936031 -4.280597 6.795871 -0.961704 -4.274875 -40.256206 0.832167 1.009482 22.616819 3.290378 1.347489 -138.580850 -69.629134 -44.092720 -8.700106 52.322176 -25.079551 -77.145224 -17.166618 2.948159 -0.123176 2.758933 65.300898 99.597286 79.919948 -79.608150 -60.454202 -21.162385 -0.583693 -62.633695 18.525797 -2.473972 2.848989 21.199755 -14.513478 
97.459007 9.178894 257.544495 -167.779116 16.425343 -160.321793 169.081237 -19.847404 168.097526 -47.537656 -6.236184 -14.263158 80.553707 6.239886 -16.785601 21.454557 0.003095 -0.000006 159.735353 6.422395 173.077745 -79.407841 0.643784 -2.604928 71.638152 6.839532 14.919268 21.454563 -0.003108 -0.000019 8.809277 -0.500582 -2.033015 7.621455 -0.866476 -4.094599 7.304194 -0.891033 -4.089297 -41.865242 -1.156416 2.535713 23.318112 4.992313 1.693208 -143.784798 -71.323185 -38.672487 -5.678628 57.843356 -27.023869 -82.242158 -15.839548 3.077614 0.372037 3.479466 66.461709 86.989159 74.664875 -92.635568 -67.253546 -19.923735 1.039583 -61.139646 18.477098 -2.412364 2.174080 19.338975 -14.676366 
97.444489 9.563993 256.920410 -167.667730 15.597311 -156.669609 166.443391 -20.566697 168.549999 -51.747019 -6.041938 -14.705681 80.906644 7.123139 -14.412956 21.454555 0.003098 -0.000003 162.278219 7.692092 174.392215 -77.995501 1.343703 -2.843766 71.732935 7.446594 16.326850 21.454562 -0.003109 -0.000019 9.059979 -0.514172 -1.730879 8.121215 -0.905808 -3.493599 7.803709 -0.926735 -3.488067 -43.789931 0.066027 3.022219 24.106939 4.343245 2.797072 -152.123735 -73.387452 -30.047607 -3.905096 62.483670 -30.532073 -86.887301 -13.273317 3.100590 0.996203 1.976028 69.860951 82.371275 71.090706 -97.494667 -73.413223 -17.756229 3.161111 -61.932809 18.195694 -2.423719 0.937133 16.890006 -18.612032 
97.470734 9.922688 256.076813 -167.906609 14.667679 -152.671093 163.366036 -20.647703 169.264915 -55.857748 -5.545465 -15.557774 81.101953 8.253948 -12.044076 21.454550 0.003089 0.000006 164.753575 9.260496 176.330868 -76.767481 1.829880 -3.099631 72.856999 7.731065 17.228717 21.454565 -0.003110 -0.000022 9.370380 -0.569432 -1.300099 8.740273 -1.039147 -2.639537 8.422479 -1.054931 -2.633210 -45.871233 0.527296 3.642434 24.505583 4.081758 3.609867 -164.094298 -74.800209 -17.757512 -9.671181 65.705573 -41.376589 -89.185619 -9.586885 2.940861 1.647812 0.863690 77.396186 76.393685 69.153616 -103.516380 -79.309670 -15.034305 5.983783 -64.313915 18.502856 -2.539025 -1.843593 14.080740 -24.498934 
97.634033 10.222800 254.970596 -168.719729 13.814130 -148.265102 159.787112 -20.030201 170.075057 -59.769797 -4.945119 -16.591079 81.629059 9.518985 -9.645278 21.454558 0.003090 0.000002 167.089841 11.018399 178.837944 -75.569261 2.077767 -3.225053 74.367195 7.795038 17.980282 21.454563 -0.003109 -0.000018 9.537698 -0.661736 -0.754335 9.071700 -1.262361 -1.558267 8.753644 -1.271612 -1.550608 -44.473100 -0.450607 4.172728 23.174560 4.750836 3.500573 178.420715 -76.143878 0.117672 -15.318723 66.500969 -46.257661 -89.095590 -9.369680 2.921510 1.589560 0.744387 82.485947 71.771327 68.477947 -108.085196 -83.883431 -11.902009 8.218500 -67.225502 17.970554 -2.619910 -5.759234 16.577752 -29.074401 
97.977707 10.546930 253.681900 -170.097774 13.186990 -143.131614 155.848511 -18.774401 170.344945 -63.303628 -4.087785 -16.741533 82.704220 9.985398 -8.118450 21.454555 0.003088 -0.000007 169.491568 12.522291 -177.906771 -74.247947 2.041321 -3.155217 75.682321 7.607437 18.284657 21.454551 -0.003109 -0.000015 9.505086 -0.782018 -0.102717 8.999949 -1.553709 -0.265930 8.681730 -1.555155 -0.256532 -40.291631 0.283445 3.405316 20.610997 3.260987 3.168778 153.114850 -76.715134 25.885794 -20.425392 67.155431 -49.523188 -88.254356 -10.314407 2.950859 2.980141 3.193731 84.554832 70.231208 69.782766 -109.493697 -87.579882 -9.063387 10.045793 -69.885464 17.791232 -2.717743 -11.126156 17.959043 -34.125445 
